M48
;DRILL file {KiCad (6.0.0-rc1-dev-1178-g62e2fe8bb)} date Mon 03 Dec 2018 12:07:51 AM PST
;FORMAT={-:-/ absolute / inch / decimal}
FMAT,2
INCH
T1C0.0098
T2C0.0402
%
G90
G05
T1
X1.252Y-1.563
X1.2559Y-1.685
X1.2559Y-1.7874
X1.2598Y-1.8209
X1.2598Y-1.8799
X1.2598Y-1.9094
X1.2598Y-1.939
X1.2598Y-1.998
X1.2598Y-2.0768
X1.2598Y-2.1358
X1.2598Y-2.1949
X1.2598Y-2.2539
X1.2598Y-2.313
X1.2953Y-1.5394
X1.2953Y-1.6575
X1.2953Y-1.7165
X1.2992Y-1.7598
X1.3071Y-2.5551
X1.3091Y-0.7894
X1.3091Y-0.872
X1.3209Y-1.1319
X1.3248Y-1.0728
X1.3268Y-2.4331
X1.3276Y-2.4882
X1.3287Y-0.7657
X1.3346Y-1.1713
X1.3365Y-2.3701
X1.3366Y-1.1122
X1.3386Y-1.0138
X1.3386Y-1.0531
X1.3386Y-1.2106
X1.3386Y-1.2697
X1.3386Y-1.3287
X1.3386Y-1.3878
X1.3386Y-1.4469
X1.3386Y-1.5059
X1.3406Y-1.565
X1.3406Y-1.8209
X1.3406Y-1.8799
X1.3406Y-1.939
X1.3406Y-1.998
X1.3406Y-2.0768
X1.3406Y-2.1358
X1.3406Y-2.1949
X1.3406Y-2.2539
X1.3406Y-2.313
X1.3543Y-0.7894
X1.3602Y-1.6411
X1.3622Y-2.4134
X1.3622Y-2.5919
X1.3622Y-2.6299
X1.376Y-0.811
X1.378Y-1.6181
X1.3786Y-2.8583
X1.4173Y-1.0335
X1.4173Y-1.0925
X1.4173Y-1.1516
X1.4173Y-1.2323
X1.4173Y-2.3327
X1.4173Y-2.372
X1.4193Y-1.1909
X1.4193Y-1.2894
X1.4213Y-2.0177
X1.4213Y-2.7067
X1.4213Y-2.8307
X1.4232Y-1.5256
X1.4232Y-1.5846
X1.4232Y-2.7638
X1.4232Y-2.8858
X1.4252Y-1.3484
X1.4252Y-1.4075
X1.4252Y-1.6378
X1.4272Y-1.4862
X1.4272Y-1.9193
X1.4311Y-2.1543
X1.4311Y-2.1764
X1.4331Y-2.0953
X1.4331Y-2.1173
X1.435Y-1.25
X1.435Y-1.3091
X1.437Y-2.3524
X1.439Y-2.0362
X1.439Y-2.0583
X1.4409Y-1.5453
X1.4429Y-2.2724
X1.4429Y-2.2945
X1.4449Y-1.3681
X1.4449Y-1.4272
X1.4449Y-1.4665
X1.4459Y-2.2134
X1.4459Y-2.2354
X1.4488Y-1.6772
X1.4488Y-1.9587
X1.4488Y-2.6831
X1.4626Y-2.7362
X1.4665Y-1.7165
X1.4665Y-1.9783
X1.4724Y-2.4685
X1.4783Y-2.5512
X1.4783Y-2.5748
X1.4803Y-2.6014
X1.4882Y-0.8681
X1.4961Y-0.8996
X1.4961Y-1.0276
X1.4961Y-1.0689
X1.4961Y-1.2756
X1.4961Y-1.3189
X1.4961Y-1.5276
X1.4961Y-1.5689
X1.4961Y-1.6949
X1.4961Y-1.815
X1.4961Y-1.8563
X1.4961Y-2.063
X1.4961Y-2.1083
X1.4961Y-2.313
X1.4961Y-2.3602
X1.4961Y-2.4803
X1.5157Y-0.8327
X1.5276Y-1.6417
X1.5276Y-1.685
X1.5276Y-1.7165
X1.5276Y-1.7421
X1.5276Y-1.7697
X1.5295Y-0.876
X1.5315Y-1.6181
X1.5453Y-1.4272
X1.5453Y-1.4705
X1.5453Y-2.3524
X1.5472Y-1.9528
X1.5551Y-1.5984
X1.565Y-2.3341
X1.565Y-2.372
X1.5728Y-1.6654
X1.5728Y-1.9587
X1.5728Y-2.0177
X1.5748Y-2.5315
X1.5748Y-2.6181
X1.5748Y-2.8366
X1.5748Y-2.9134
X1.5945Y-2.6752
X1.6004Y-0.8327
X1.6024Y-2.5748
X1.6319Y-0.8917
X1.6398Y-0.9606
X1.6457Y-0.9193
X1.6535Y-2.0768
X1.6535Y-2.1358
X1.6535Y-2.1949
X1.6535Y-2.2539
X1.6535Y-2.313
X1.6575Y-0.939
X1.6575Y-1.0335
X1.6575Y-1.0925
X1.6575Y-1.1516
X1.6575Y-1.2106
X1.6575Y-1.2697
X1.6575Y-1.3287
X1.6575Y-1.3878
X1.6575Y-1.4469
X1.6575Y-1.5059
X1.6575Y-1.565
X1.6575Y-1.8209
X1.6575Y-1.8799
X1.6575Y-1.939
X1.6575Y-1.998
X1.6614Y-2.4449
X1.6654Y-0.9843
X1.6791Y-1.8602
X1.6791Y-1.9193
X1.6852Y-1.5451
X1.7008Y-1.5256
X1.7008Y-1.7874
X1.7028Y-1.8996
X1.7087Y-2.7343
X1.7185Y-2.4134
X1.7303Y-1.5846
X1.741Y-1.4467
X1.7411Y-2.1348
X1.7411Y-2.1949
X1.7411Y-2.2539
X1.7421Y-0.937
X1.7421Y-1.0335
X1.7421Y-1.0925
X1.7421Y-1.1496
X1.7421Y-1.2106
X1.7421Y-1.2697
X1.7421Y-1.3287
X1.7421Y-1.3878
X1.7421Y-1.5059
X1.7431Y-2.313
X1.7441Y-2.3465
X1.7441Y-2.4783
X1.7579Y-2.7756
X1.7579Y-2.815
X1.7579Y-2.874
X1.7697Y-0.939
X1.771Y-1.4291
X1.7717Y-2.6969
X1.7717Y-2.7559
X1.7717Y-2.7953
X1.7717Y-2.8996
X1.7815Y-1.0728
X1.7815Y-1.1376
X1.7874Y-1.2303
X1.7874Y-1.4862
X1.7935Y-1.0059
X1.7953Y-2.6575
X1.8031Y-0.9331
X1.8228Y-1.5059
X1.8307Y-2.622
X1.8307Y-2.9409
X1.8366Y-1.1772
X1.8504Y-2.6083
X1.8504Y-2.7067
X1.8504Y-2.7461
X1.8504Y-2.7854
X1.8504Y-2.8248
X1.8504Y-2.8642
X1.8504Y-2.9587
X1.8606Y-1.4661
X1.8661Y-2.3445
X1.8661Y-2.4783
X1.8675Y-0.9345
X1.8701Y-2.622
X1.8701Y-2.9409
X1.8898Y-2.6083
X1.8898Y-2.7067
X1.8898Y-2.7461
X1.8898Y-2.7854
X1.8898Y-2.8248
X1.8898Y-2.8642
X1.8898Y-2.9587
X1.8917Y-0.9239
X1.8957Y-2.4154
X1.9094Y-0.9843
X1.9094Y-1.0236
X1.9094Y-1.1772
X1.9094Y-2.5059
X1.9094Y-2.622
X1.9094Y-2.9744
X1.9101Y-1.4646
X1.9252Y-0.9252
X1.9291Y-2.6083
X1.9291Y-2.7067
X1.9291Y-2.7461
X1.9291Y-2.7854
X1.9291Y-2.8248
X1.9291Y-2.8642
X1.9291Y-2.9587
X1.9469Y-1.3839
X1.9488Y-1.1831
X1.9488Y-2.4902
X1.9488Y-2.9409
X1.9508Y-2.622
X1.9646Y-2.4154
X1.9843Y-1.1831
X1.9921Y-2.3465
X2.0059Y-2.9193
X2.0079Y-1.3819
X2.0118Y-2.6969
X2.0118Y-2.7756
X2.0118Y-2.815
X2.0118Y-2.874
X2.0177Y-2.4154
X2.0195Y-2.7953
X2.0197Y-2.7559
X2.0276Y-0.9252
X2.0276Y-2.6772
X2.0315Y-1.7428
X2.0451Y-1.0823
X2.0541Y-1.9931
X2.0669Y-0.9252
X2.0906Y-2.4154
X2.0945Y-1.0846
X2.1063Y-0.9331
X2.1142Y-1.9173
X2.1181Y-2.3484
X2.126Y-2.2244
X2.128Y-2.4738
X2.1417Y-2.4154
X2.1419Y-1.7417
X2.1457Y-2.6299
X2.1522Y-2.7185
X2.1535Y-2.8248
X2.1614Y-2.1417
X2.1654Y-1.7374
X2.1663Y-1.9931
X2.1713Y-2.5866
X2.1772Y-2.7598
X2.1791Y-2.8937
X2.187Y-2.4331
X2.1929Y-1.9173
X2.1949Y-2.6608
X2.1988Y-2.3071
X2.2028Y-1.5925
X2.2047Y-1.7913
X2.2047Y-1.9882
X2.2087Y-2.7185
X2.2087Y-2.8268
X2.2106Y-1.3484
X2.2157Y-0.9323
X2.2244Y-1.376
X2.2343Y-2.3425
X2.2343Y-2.4291
X2.2402Y-2.063
X2.2441Y-1.8898
X2.25Y-2.2441
X2.2513Y-2.3051
X2.2559Y-0.9409
X2.2598Y-2.7756
X2.2677Y-2.3465
X2.2795Y-1.8071
X2.2826Y-1.7292
X2.2835Y-1.9291
X2.2854Y-1.6457
X2.2874Y-2.7087
X2.2874Y-2.8425
X2.2876Y-1.5342
X2.2885Y-1.4202
X2.2913Y-2.374
X2.2933Y-2.5886
X2.2953Y-2.6608
X2.2953Y-1.3717
X2.3031Y-0.9843
X2.3031Y-1.0236
X2.3118Y-2.0187
X2.315Y-2.3524
X2.3202Y-2.6299
X2.3228Y-1.5347
X2.3228Y-1.5748
X2.3228Y-1.6535
X2.3228Y-1.6909
X2.3228Y-1.7323
X2.3228Y-1.811
X2.3228Y-1.8504
X2.3245Y-1.9275
X2.3314Y-2.3051
X2.3327Y-2.2343
X2.3339Y-2.0187
X2.3346Y-2.1752
X2.3551Y-1.3506
X2.361Y-1.6102
X2.361Y-1.6457
X2.3615Y-1.5348
X2.3622Y-1.5839
X2.3622Y-1.6929
X2.3622Y-1.7323
X2.3622Y-1.7704
X2.3622Y-1.8504
X2.3622Y-1.8898
X2.3622Y-1.9685
X2.3642Y-1.8091
X2.3671Y-1.9203
X2.3701Y-1.4951
X2.374Y-0.9252
X2.374Y-2.3031
X2.374Y-2.4154
X2.3773Y-2.1339
X2.3773Y-2.2441
X2.3962Y-1.8882
X2.4016Y-1.6142
X2.4016Y-1.6535
X2.4016Y-1.7323
X2.4016Y-1.7717
X2.4016Y-1.811
X2.4016Y-1.8504
X2.4035Y-1.5315
X2.4055Y-1.5787
X2.4114Y-2.7067
X2.4114Y-2.8445
X2.4213Y-0.9252
X2.4213Y-2.0079
X2.4274Y-1.1778
X2.4289Y-1.4176
X2.429Y-1.3781
X2.437Y-1.689
X2.437Y-2.7756
X2.4378Y-1.0957
X2.4409Y-1.4961
X2.4409Y-1.5748
X2.4409Y-1.6142
X2.4409Y-1.6535
X2.4409Y-1.7717
X2.4409Y-1.811
X2.4409Y-1.8504
X2.4463Y-1.8836
X2.4606Y-0.9252
X2.4652Y-2.189
X2.477Y-2.3917
X2.4803Y-1.5748
X2.4803Y-1.6142
X2.4803Y-1.7323
X2.4803Y-1.7717
X2.4803Y-1.811
X2.4803Y-1.8504
X2.4803Y-2.3327
X2.4815Y-1.0846
X2.4816Y-1.8898
X2.4823Y-1.4961
X2.4823Y-1.5374
X2.4836Y-2.2323
X2.4882Y-1.6535
X2.4902Y-0.9272
X2.5Y-2.4567
X2.5002Y-1.3465
X2.5002Y-1.3701
X2.5098Y-1.4173
X2.5098Y-2.3327
X2.5098Y-2.3917
X2.5105Y-1.1772
X2.5138Y-1.5728
X2.5157Y-0.9272
X2.5189Y-1.4933
X2.5196Y-1.3905
X2.5197Y-1.6535
X2.5197Y-1.6929
X2.5197Y-1.8504
X2.5246Y-1.3691
X2.5263Y-1.8071
X2.5315Y-2.5197
X2.5315Y-2.6181
X2.5374Y-2.6772
X2.5386Y-2.3334
X2.5394Y-2.3917
X2.5433Y-1.3445
X2.5472Y-1.315
X2.5581Y-1.4908
X2.5591Y-1.5354
X2.5591Y-1.5748
X2.5591Y-1.6142
X2.5591Y-1.6535
X2.5591Y-1.6961
X2.5591Y-1.7402
X2.5591Y-1.7717
X2.5591Y-1.8504
X2.5591Y-1.9685
X2.5591Y-2.0335
X2.5597Y-1.4455
X2.5622Y-1.8912
X2.5684Y-2.2054
X2.5776Y-1.3191
X2.5886Y-1.2913
X2.5945Y-1.6614
X2.5984Y-1.4902
X2.5984Y-1.5354
X2.5984Y-1.5748
X2.5984Y-1.6142
X2.5984Y-1.7323
X2.5984Y-1.7717
X2.5984Y-1.811
X2.5984Y-1.8504
X2.5984Y-1.8898
X2.5984Y-1.9311
X2.6024Y-2.6542
X2.6083Y-1.3307
X2.6142Y-2.9646
X2.6181Y-1.378
X2.6181Y-2.0079
X2.6201Y-1.2559
X2.6353Y-1.5344
X2.6378Y-1.4961
X2.6378Y-1.5748
X2.6378Y-1.6142
X2.6378Y-1.7323
X2.6378Y-1.7717
X2.6378Y-1.811
X2.6378Y-1.8504
X2.6378Y-1.8898
X2.6417Y-2.5394
X2.6417Y-2.5984
X2.6417Y-2.6378
X2.6417Y-2.6772
X2.6444Y-1.2992
X2.6575Y-1.3602
X2.6732Y-1.6575
X2.6732Y-2.4331
X2.6772Y-1.4173
X2.6772Y-1.7323
X2.6772Y-1.7717
X2.6791Y-1.5354
X2.6796Y-1.8142
X2.6811Y-1.4606
X2.6811Y-1.498
X2.6818Y-1.8504
X2.6831Y-1.3406
X2.689Y-2.7815
X2.6969Y-2.8379
X2.7038Y-1.311
X2.7067Y-2.7441
X2.7087Y-2.7087
X2.7126Y-1.689
X2.7165Y-1.6535
X2.7165Y-1.7717
X2.7165Y-1.8504
X2.7167Y-1.7324
X2.7258Y-1.311
X2.7441Y-2.8543
X2.748Y-2.6555
X2.7509Y-1.7373
X2.752Y-1.2933
X2.752Y-2.5
X2.752Y-2.5591
X2.7559Y-1.4606
X2.7559Y-1.5748
X2.7559Y-1.6535
X2.7559Y-1.8504
X2.7559Y-1.9685
X2.7638Y-1.2618
X2.7907Y-1.315
X2.7913Y-2.5787
X2.7953Y-1.4567
X2.7953Y-2.5
X2.7953Y-2.8504
X2.7992Y-2.1417
X2.8071Y-1.3366
X2.8078Y-2.6764
X2.8091Y-1.3701
X2.811Y-0.8583
X2.815Y-2.0079
X2.815Y-2.4764
X2.815Y-2.5157
X2.8209Y-0.7677
X2.8247Y-1.5839
X2.8346Y-1.3976
X2.8346Y-2.6575
X2.8346Y-2.7008
X2.8346Y-2.815
X2.8386Y-1.4646
X2.8386Y-1.9094
X2.8386Y-2.8976
X2.8425Y-1.7913
X2.8425Y-1.8689
X2.8517Y-1.3701
X2.8553Y-2.7569
X2.8622Y-2.2559
X2.8642Y-2.5492
X2.8642Y-2.5886
X2.8642Y-2.628
X2.8684Y-1.4035
X2.8701Y-0.9902
X2.874Y-2.8543
X2.8858Y-1.3642
X2.8878Y-1.9547
X2.8898Y-0.8563
X2.8937Y-2.7441
X2.9016Y-1.878
X2.9035Y-1.3898
X2.9035Y-2.5492
X2.9035Y-2.5886
X2.9035Y-2.628
X2.9055Y-2.9528
X2.9094Y-2.1417
X2.9114Y-0.7677
X2.9134Y-2.4754
X2.9134Y-2.5157
X2.9134Y-2.8071
X2.9173Y-1.9764
X2.9173Y-2.2559
X2.9331Y-2.3071
X2.9331Y-2.6969
X2.9331Y-2.7441
X2.935Y-1.939
X2.9388Y-1.1715
X2.9403Y-1.1187
X2.9409Y-2.5157
X2.9429Y-2.5492
X2.9429Y-2.5886
X2.9429Y-2.628
X2.9449Y-1.8944
X2.9528Y-2.4291
X2.9724Y-1.5157
X2.9724Y-2.3071
X2.9737Y-1.0928
X2.9757Y-1.4016
X2.9764Y-1.7913
X2.9783Y-0.7598
X2.9803Y-2.5394
X2.9803Y-2.6378
X2.9803Y-2.8425
X2.9882Y-2.2559
X2.9902Y-1.2106
X2.9921Y-2.4744
X2.9921Y-2.5157
X3.0059Y-0.9803
X3.0118Y-2.2953
X3.0118Y-2.9094
X3.0197Y-2.5394
X3.0197Y-2.6378
X3.0256Y-1.2244
X3.0315Y-0.9882
X3.0354Y-2.8268
X3.0374Y-0.7598
X3.0385Y-1.689
X3.0394Y-2.2559
X3.0512Y-2.4173
X3.0591Y-2.4803
X3.0591Y-2.6969
X3.061Y-1.2224
X3.063Y-1.124
X3.0709Y-1.685
X3.0728Y-1.8268
X3.0748Y-2.7323
X3.0787Y-2.3563
X3.0827Y-2.189
X3.0925Y-0.7598
X3.0968Y-1.6342
X3.0984Y-1.1043
X3.1024Y-2.7677
X3.1063Y-2.2126
X3.1063Y-2.3071
X3.1102Y-2.811
X3.1142Y-2.4173
X3.1181Y-2.1654
X3.1181Y-2.3563
X3.124Y-0.9882
X3.1258Y-1.9341
X3.1329Y-2.5339
X3.1417Y-2.6969
X3.1457Y-1.4291
X3.1457Y-2.4469
X3.1457Y-2.4803
X3.1464Y-2.3261
X3.1476Y-0.7598
X3.1496Y-0.9882
X3.1516Y-1.1043
X3.1535Y-2.5866
X3.1567Y-2.3543
X3.1613Y-2.3068
X3.1673Y-2.1181
X3.1693Y-1.685
X3.1693Y-1.7205
X3.1693Y-1.7559
X3.1693Y-1.7913
X3.1772Y-1.4291
X3.1772Y-1.5157
X3.185Y-2.7323
X3.185Y-2.7677
X3.1895Y-2.4639
X3.1969Y-2.0965
X3.2008Y-1.2598
X3.213Y-2.4642
X3.2165Y-2.0709
X3.2165Y-2.9252
X3.2205Y-1.4055
X3.2205Y-2.811
X3.2244Y-1.0551
X3.2323Y-0.7638
X3.2373Y-2.4674
X3.2402Y-2.0472
X3.2441Y-1.6339
X3.252Y-2.5315
X3.2598Y-2.0276
X3.2604Y-2.4637
X3.2717Y-0.7638
X3.2717Y-1.0512
X3.2717Y-1.6614
X3.2776Y-1.8346
X3.2795Y-1.9134
X3.2946Y-1.5354
X3.2953Y-2.0256
X3.2954Y-2.7401
X3.311Y-2.7245
X3.3169Y-1.7303
X3.3169Y-1.8209
X3.3209Y-2.0256
X3.3228Y-0.7559
X3.3228Y-1.0551
X3.3465Y-1.6831
X3.3465Y-1.8898
X3.3484Y-2.0248
X3.3701Y-0.7598
X3.3701Y-1.0512
X3.3701Y-1.248
X3.374Y-1.8898
X3.374Y-1.9646
X3.3805Y-2.6323
X3.3858Y-1.811
X3.3858Y-1.998
X3.3858Y-2.2205
X3.396Y-2.6167
X3.4173Y-1.811
X3.4173Y-1.8386
X3.4173Y-1.937
X3.4173Y-1.9685
X3.4173Y-2.0315
X3.4173Y-2.2205
X3.4213Y-0.7559
X3.4213Y-1.0512
X3.4252Y-2.6701
X3.4252Y-2.6921
X3.4434Y-2.0
X3.4488Y-2.1837
X3.4488Y-1.9001
X3.4488Y-1.811
X3.4488Y-1.8386
X3.4488Y-1.937
X3.4488Y-2.2205
X3.4646Y-1.248
X3.4724Y-0.9449
X3.4803Y-1.811
X3.4803Y-1.8386
X3.4803Y-1.937
X3.4803Y-1.9685
X3.4806Y-1.8798
X3.4882Y-2.7025
X3.4949Y-1.4961
X3.4961Y-1.5354
X3.4961Y-1.6614
X3.5118Y-1.937
X3.5118Y-1.9685
X3.5118Y-2.0
X3.5118Y-2.0315
X3.5118Y-2.063
X3.5118Y-2.0945
X3.5118Y-2.1575
X3.5118Y-2.2205
X3.5413Y-2.7931
X3.5433Y-1.937
X3.5433Y-1.9685
X3.5433Y-2.0
X3.5433Y-2.1575
X3.5748Y-1.937
X3.5748Y-2.0
X3.5748Y-2.0315
X3.5748Y-2.063
X3.5748Y-2.0945
X3.5748Y-2.126
X3.5748Y-2.1575
X3.5748Y-2.252
X3.5827Y-2.7213
X3.5827Y-2.7433
X3.5902Y-2.0787
X3.5984Y-1.4764
X3.6024Y-2.0433
X3.6063Y-1.874
X3.6063Y-1.937
X3.6063Y-2.0
X3.6063Y-2.0945
X3.6063Y-2.1575
X3.6063Y-2.252
X3.622Y-1.3535
X3.6378Y-1.937
X3.6378Y-2.0
X3.6378Y-2.0945
X3.6378Y-2.1575
X3.6378Y-2.252
X3.6417Y-2.0433
X3.6535Y-2.0787
X3.6535Y-2.2874
X3.6575Y-1.759
X3.6575Y-1.8071
X3.6634Y-3.0
X3.6693Y-1.8425
X3.6693Y-1.9055
X3.6693Y-1.9685
X3.6693Y-2.0
X3.6693Y-2.0315
X3.6693Y-2.063
X3.6693Y-2.0945
X3.6693Y-2.1575
X3.689Y-2.3228
X3.7008Y-1.8031
X3.7008Y-1.8425
X3.7008Y-1.937
X3.7008Y-2.252
X3.7008Y-2.6024
X3.7008Y-2.8012
X3.7087Y-1.1811
X3.7087Y-1.2717
X3.7165Y-1.5394
X3.7165Y-1.7598
X3.7205Y-1.4783
X3.7323Y-1.937
X3.7323Y-2.0
X3.7323Y-2.0315
X3.7323Y-2.063
X3.7323Y-2.0945
X3.7323Y-2.126
X3.7323Y-2.1575
X3.7638Y-1.9055
X3.7638Y-1.937
X3.7638Y-2.061
X3.7638Y-2.2539
X3.7795Y-1.7953
X3.7972Y-2.2185
X3.8268Y-1.9055
X3.8268Y-1.937
X3.8268Y-1.9685
X3.8661Y-1.9213
X3.8976Y-2.0157
X3.9094Y-2.2078
X3.9154Y-2.0
X3.9173Y-2.0472
X3.9213Y-2.1071
X3.9528Y-2.2677
X3.9783Y-2.2677
X4.0Y-2.2362
X4.0248Y-1.502
X4.1535Y-1.5846
X4.1614Y-1.9783
X4.1693Y-1.1319
X4.1713Y-1.25
X4.1713Y-1.8602
X4.1732Y-1.0728
X4.1732Y-1.8012
X4.1752Y-1.1909
X4.1752Y-2.0374
X4.1772Y-1.9193
X4.1831Y-2.0965
X4.189Y-1.998
X4.1909Y-1.0335
X4.1909Y-1.2697
X4.1929Y-1.1516
X4.1929Y-1.3091
X4.1949Y-1.8799
X4.1957Y-1.0925
X4.1957Y-1.2106
X4.1969Y-1.8209
X4.1977Y-1.9377
X4.1977Y-2.0571
X4.2028Y-2.1161
X4.2106Y-1.0138
X4.2106Y-1.0531
X4.2106Y-1.1122
X4.2106Y-1.1713
X4.2106Y-1.2303
X4.2106Y-1.2894
X4.2106Y-1.3484
X4.2106Y-1.4075
X4.2106Y-1.4665
X4.2106Y-1.5256
X4.2106Y-1.5846
X4.2126Y-1.8406
X4.2126Y-1.8996
X4.2126Y-1.9587
X4.2126Y-2.0177
X4.2126Y-2.0768
X4.2126Y-2.1358
X4.2126Y-2.1949
X4.2126Y-2.2539
X4.2126Y-2.313
X4.2126Y-2.372
X4.3622Y-2.6024
X4.3701Y-1.0276
X4.3701Y-1.0709
X4.3701Y-1.2756
X4.3701Y-1.3228
X4.3701Y-1.5236
X4.3701Y-1.5709
X4.3701Y-1.6929
X4.3701Y-1.815
X4.3701Y-1.8583
X4.3701Y-2.063
X4.3701Y-2.1102
X4.3701Y-2.315
X4.3701Y-2.3583
X4.4193Y-1.25
X4.4232Y-1.3091
X4.4232Y-1.8012
X4.4252Y-1.1319
X4.4252Y-1.9193
X4.4272Y-1.0728
X4.4272Y-1.1909
X4.4272Y-1.8602
X4.4272Y-2.0374
X4.4272Y-2.1007
X4.4291Y-1.9783
X4.4311Y-1.0138
X4.435Y-2.1555
X4.435Y-2.2146
X4.4409Y-1.2697
X4.4429Y-1.939
X4.4449Y-1.2106
X4.4449Y-1.8209
X4.4449Y-1.8799
X4.4449Y-2.0571
X4.4467Y-1.1516
X4.4469Y-1.0925
X4.4469Y-2.1161
X4.4469Y-2.2736
X4.4488Y-1.0335
X4.4488Y-1.3681
X4.4488Y-1.4272
X4.4488Y-2.1752
X4.4488Y-2.2343
X4.4508Y-1.3287
X4.4508Y-1.998
X4.5276Y-1.1122
X4.5276Y-1.1713
X4.5276Y-1.2303
X4.5276Y-1.2894
X4.5276Y-1.3484
X4.5276Y-1.4075
X4.5276Y-1.4665
X4.5276Y-1.5256
X4.5276Y-1.5846
X4.5295Y-1.8406
X4.5295Y-1.8996
X4.5295Y-1.9587
X4.5295Y-2.0177
X4.5295Y-2.0768
X4.5295Y-2.1358
X4.5295Y-2.1949
X4.5295Y-2.2539
X4.5295Y-2.313
X4.5295Y-2.3366
X4.5295Y-2.372
X4.5297Y-1.0531
X4.5425Y-1.3878
X4.5425Y-1.4469
X4.5425Y-1.5059
X4.5425Y-1.565
X4.5444Y-2.2933
X4.5453Y-1.5431
X4.5472Y-2.3524
X4.5476Y-1.4845
T2
X4.45Y-0.9354
X4.45Y-2.4504
X1.576Y-0.9354
X1.576Y-2.4504
T0
M30
